<?xml version="1.0" encoding="utf-8"?>

<!DOCTYPE svg PUBLIC "-//W3C//DTD SVG 1.0//EN" "http://www.w3.org/TR/2001/REC-SVG-20010904/DTD/svg10.dtd">
<!-- Uploaded to: SVG Repo, www.svgrepo.com, Generator: SVG Repo Mixer Tools -->
<svg version="1.0" id="Layer_1" xmlns="http://www.w3.org/2000/svg" xmlns:xlink="http://www.w3.org/1999/xlink" 
	 width="800px" height="800px" viewBox="0 0 64 64" enable-background="new 0 0 64 64" xml:space="preserve">
<g>
	<g>
		<path fill-rule="evenodd" clip-rule="evenodd" fill="#394240" d="M32.003,16.003c-8.837,0-16.001,7.165-16.001,16.001
			s7.165,16.001,16.001,16.001s16.001-7.164,16.001-16.001S40.84,16.003,32.003,16.003z M32.003,40.006
			c-4.418,0-8.001-3.587-8.001-8.001c0-4.422,3.583-8.001,8.001-8.001s8.001,3.579,8.001,8.001
			C40.004,36.419,36.421,40.006,32.003,40.006z"/>
		<path fill-rule="evenodd" clip-rule="evenodd" fill="#394240" d="M12.001,31.997c0-2.211-1.789-4-4-4H4c-2.211,0-4,1.789-4,4
			s1.789,4,4,4h4C10.212,35.997,12.001,34.208,12.001,31.997z"/>
		<path fill-rule="evenodd" clip-rule="evenodd" fill="#394240" d="M12.204,46.139l-2.832,2.829c-1.563,1.562-1.563,4.094,0,5.656
			c1.562,1.562,4.094,1.562,5.657,0l2.833-2.828c1.562-1.562,1.562-4.095,0-5.657C16.298,44.576,13.767,44.576,12.204,46.139z"/>
		<path fill-rule="evenodd" clip-rule="evenodd" fill="#394240" d="M32.003,51.999c-2.211,0-4,1.789-4,4V60c0,2.211,1.789,4,4,4
			s4-1.789,4-4l-0.004-4.001C36.003,53.788,34.21,51.999,32.003,51.999z"/>
		<path fill-rule="evenodd" clip-rule="evenodd" fill="#394240" d="M51.798,46.139c-1.559-1.562-4.091-1.562-5.653,0
			s-1.562,4.095,0,5.657l2.829,2.828c1.562,1.57,4.094,1.562,5.656,0s1.566-4.094,0-5.656L51.798,46.139z"/>
		<path fill-rule="evenodd" clip-rule="evenodd" fill="#394240" d="M60.006,27.997l-4.009,0.008
			c-2.203-0.008-3.992,1.781-3.992,3.992c-0.008,2.211,1.789,4,3.992,4h4.001c2.219,0.008,4-1.789,4-4
			C64.002,29.786,62.217,27.997,60.006,27.997z"/>
		<path fill-rule="evenodd" clip-rule="evenodd" fill="#394240" d="M51.798,17.855l2.828-2.829c1.574-1.562,1.562-4.094,0-5.657
			c-1.559-1.563-4.09-1.563-5.652,0l-2.829,2.836c-1.562,1.555-1.562,4.086,0,5.649C47.699,19.426,50.239,19.418,51.798,17.855z"/>
		<path fill-rule="evenodd" clip-rule="evenodd" fill="#394240" d="M32.003,11.995c2.207,0.016,4-1.789,4-3.992v-4
			c0-2.219-1.789-4-4-4c-2.211-0.008-4,1.781-4,3.993l0.008,4.008C28.003,10.206,29.792,11.995,32.003,11.995z"/>
		<path fill-rule="evenodd" clip-rule="evenodd" fill="#394240" d="M12.212,17.855c1.555,1.562,4.079,1.562,5.646-0.008
			c1.574-1.547,1.566-4.086,0.008-5.649L15.037,9.37c-1.57-1.571-4.094-1.555-5.657,0c-1.575,1.562-1.575,4.094-0.012,5.657
			L12.212,17.855z"/>
	</g>
	<path fill-rule="evenodd" clip-rule="evenodd" fill="#F9EBB2" d="M39.996,31.997c0-4.422-3.583-8.001-8.001-8.001
		s-8.001,3.579-8.001,8.001c0,4.414,3.583,8.001,8.001,8.001S39.996,36.411,39.996,31.997z"/>
</g>
</svg>